PathFileType	4	(X/Y/Z)	Patient4_TMGait_0pt7_02_left_06.trc.trc
DataRate	CameraRate	NumFrames	NumMarkers	Units	OrigDataRate	OrigDataStartFrame	OrigNumFrames
88.050314465409	88.050314465409	4	33	mm	88.050314465409	89	       141
Frame#	Time	Sacral			L.Shoulder			Chest			R.Shoulder			Neck			R.ASIS			L.ASIS			R.Thigh.Superior			R.Thigh.Lateral			R.Thigh.Inferior			R.Patella			L.Thigh.Superior			L.Thigh.Lateral			L.Thigh.Inferior			L.Patella			L.Shank.Superior			L.Shank.Lateral			L.Shank.Inferior			R.Shank.Superior			R.Shank.Lateral			R.Shank.Inferior			R.Heel			R.Midfoot.Superior			R.Midfoot.Lateral			R.Toe			L.Heel			L.Midfoot.Lateral			L.Midfoot.Superior			L.Toe			L.Elbow			L.Wrist			R.Elbow			R.Wrist			
		X1	Y1	Z1	X2	Y2	Z2	X3	Y3	Z3	X4	Y4	Z4	X5	Y5	Z5	X6	Y6	Z6	X7	Y7	Z7	X8	Y8	Z8	X9	Y9	Z9	X10	Y10	Z10	X11	Y11	Z11	X12	Y12	Z12	X13	Y13	Z13	X14	Y14	Z14	X15	Y15	Z15	X16	Y16	Z16	X17	Y17	Z17	X18	Y18	Z18	X19	Y19	Z19	X20	Y20	Z20	X21	Y21	Z21	X22	Y22	Z22	X23	Y23	Z23	X24	Y24	Z24	X25	Y25	Z25	X26	Y26	Z26	X27	Y27	Z27	X28	Y28	Z28	X29	Y29	Z29	X30	Y30	Z30	X31	Y31	Z31	X32	Y32	Z32	X33	Y33	Z33	

89	7.459428571429	787.812932626925	1001.257329856527	493.628661094009	984.201151309163	1428.449704604425	316.795240328545	1075.435213045203	1355.751470268822	484.810192180601	982.049598990098	1434.330498125137	651.962900601080	975.765766310167	1488.384538919018	471.521528506389	1009.297431310765	938.768605804559	624.289582824573	1008.044242116935	954.739576193297	348.616419804754	1072.159723777350	749.958492475388	599.364931842755	1000.125469185105	634.385230221463	657.777712447378	1088.113873439020	589.141522847683	583.516663479680	1099.139180760255	499.746943073793	592.023677691216	1039.597730735993	734.115225544386	370.929289725690	948.404791378693	623.248667615760	302.898786712391	1031.885906025013	535.440658838867	360.317223202280	1021.748119106850	450.957055361585	356.297039487849	953.760128124579	394.728531025976	349.274475265007	814.060357636757	347.656134731607	301.636405871457	804.715787813351	218.295375016994	356.480570522192	1073.249864323189	409.251337656829	599.476646224039	1002.683639666432	303.582392841610	659.028351471291	1052.715719071712	209.521126823565	600.850517889042	927.576521461426	42.684263546750	566.817865177653	1096.390569428527	99.592732577454	611.146840340786	1007.422643794684	36.793865719437	645.045467285171	1215.307544054810	49.017910602267	643.610661318456	618.153397859973	139.487646247633	396.229738410836	678.789692691676	95.837767971529	318.503185515610	781.163194376032	116.344242156571	338.245589086276	870.035323890183	32.450283865301	317.027914124471	969.322682922460	1086.583038062641	184.457248715283	1217.758463048372	1059.797128868207	226.895513091350	836.474144373998	1118.580299135693	758.125646011116	801.777333173432	858.970064034386	754.079706175062	
90	7.470785714286	786.807486169995	1002.609275261515	496.916344879817	983.071253848200	1428.960693784792	318.506393135672	1075.480396451229	1356.315360628040	485.902844666489	983.365261279533	1435.152669110886	653.422498690694	975.960141716767	1488.982532203917	473.113836137568	1008.785565046551	939.545429464223	626.482855039888	1006.931034608254	955.392407505962	350.983687300888	1069.374877209664	748.867544744903	602.583688127523	995.224898596861	634.291984368527	659.746840649939	1082.838688634112	588.302985243870	585.420623346825	1092.713410828720	499.038235438934	593.286085421825	1043.252896200854	736.995195511258	373.434386585323	956.858126906390	623.909315164394	304.462826877775	1043.076114080075	538.078459854966	362.114283273078	1034.317266091415	452.437108440778	357.546030420662	964.638579561571	396.301241030999	350.237410106121	823.390341140022	354.227724023620	302.209303555699	809.809857181359	224.940864710989	356.138638633638	1066.528727745913	408.826291625756	600.688939045361	995.530794340986	303.261532893334	659.710301882703	1045.221679514109	209.193074176711	601.361443397741	919.692035506625	42.573362811115	566.908947310502	1088.427243130235	99.393198322125	611.282534570618	999.500379888984	36.709619741124	645.157083818019	1207.424147550526	48.846935486708	643.740721313326	620.546769303585	156.515240485744	395.322798728096	678.178807349299	108.307123073016	317.885489313504	781.716687759298	121.603402622181	337.615804279997	863.368857024549	30.988897834100	317.048232915048	961.032311477659	1086.005550288175	189.271466195830	1208.851853654604	1047.433766879670	229.024396673489	842.784537489417	1116.903135931398	761.106598124410	814.794773267339	856.487198127962	755.556076557935	
91	7.482142857143	785.604471076780	1003.868646408194	500.072191133892	981.724596096496	1429.294388293364	320.095172071379	1075.456833833365	1356.654925888081	486.771849983586	984.862399717257	1435.790096216054	654.791618524468	976.111408485915	1489.421274100660	474.614816098456	1008.126188138385	940.128544805463	628.503389807501	1005.546062254808	955.821328839224	353.173391097907	1066.436727177531	747.771468137139	605.542711796970	990.389522594585	634.208288324186	661.657787619977	1077.515626283845	587.481731256441	587.183855002740	1086.222184337472	498.348117234062	594.505006883890	1046.817220669415	740.164434535765	375.938784931220	965.487550457855	624.960117614254	305.916581076511	1054.182453709243	541.297418435894	364.097691628006	1047.025361657866	454.582006893142	359.150404809053	975.913482102666	398.345630201851	351.472906212030	833.503522624229	360.918769426033	302.729896720731	815.798570503292	231.907839768825	356.007620896094	1059.803522260870	408.392825373824	601.811635604005	988.478767176495	302.935021896172	660.435831024546	1037.739007464323	208.859754505274	601.819623040600	911.770001158524	42.486356624624	567.000123864373	1080.496799851296	99.197930024697	611.380141901561	991.552806060045	36.627895273759	645.257338399941	1199.531194386846	48.580076483102	643.833169471405	624.395020200715	173.711496406417	394.309011371547	679.025565465619	121.290099541992	317.214112602221	783.320063736194	127.462223820288	337.243895482710	857.643189862241	29.667016194639	317.243138756980	952.900376844341	1085.409987460276	193.961883530666	1199.370380132264	1034.067957505620	231.064355022970	849.443902579049	1115.114780289770	764.162899766941	828.678847301134	853.998762128284	757.317379102147	
92	7.493500000000	784.232372989570	1005.007259688660	503.090803878829	980.191705158915	1429.463485542390	321.555529111092	1075.358227708195	1356.768174181388	487.420540112208	986.520109110815	1436.248354448438	656.066628319251	976.238154236522	1489.714744607994	476.018065541844	1007.333165349507	940.553958615001	630.358399251429	1003.849105256415	956.027403381352	355.173361715760	1063.413145141342	746.731670119610	608.141487878121	985.742948364820	634.157523012913	663.498400095225	1072.239004287985	586.693981435483	588.766511107264	1079.770074503763	497.684953345746	595.654863015710	1050.214552221767	743.635190531411	378.450446531232	974.133069004721	626.457820215567	307.270048072461	1065.056756502784	545.117458133462	366.221719295305	1059.723266587499	457.412162692910	361.009225985096	987.427328635934	400.890149094944	352.917208145128	844.209137672789	367.635604888719	303.204231611389	822.634318680214	239.042025410718	356.074755683745	1053.156509435309	407.954431132523	602.837264553929	981.578088854685	302.625220623150	661.206668451591	1030.302692208929	208.527773400978	602.228282430969	903.809541943342	42.425494202667	567.106454730916	1072.587485566887	99.015475078757	611.461504116468	983.581684059135	36.554919094272	645.360396543575	1191.624896227524	48.249042832704	643.908834739245	629.631118936018	190.481719969020	393.193148355116	681.443706514686	134.294877579145	316.513025347983	786.106223426507	133.763956435307	337.131200567112	853.308290961171	28.682994815454	317.678579416086	944.999764443788	1084.769435361746	198.519323014257	1189.225699940037	1019.714526510943	232.981240177940	856.434301971144	1113.226203811422	767.248649668445	843.361654126274	851.559504486008	759.365834868533	
